<svg width="160" height="29" viewBox="0 0 160 29" fill="none" xmlns="http://www.w3.org/2000/svg">
<path d="M11.3682 0.75C11.84 0.75 12.2626 0.830265 12.6309 1.01367C13.0054 1.20025 13.2759 1.46993 13.4775 1.77246C13.672 2.06425 13.8032 2.38782 13.9072 2.68945C13.9515 2.81791 13.9945 2.96441 14.04 3.11133C15.3083 3.13512 18.0878 3.12253 20.7969 3.11328C22.3735 3.1079 23.9152 3.10495 25.0918 3.11133C25.6793 3.11451 26.1803 3.11936 26.5508 3.12891C26.7353 3.13366 26.8938 3.14008 27.0166 3.14746C27.0773 3.15111 27.1363 3.15546 27.1885 3.16113C27.223 3.16489 27.3132 3.17441 27.4033 3.20215C28.4236 3.51625 28.7673 4.409 28.9141 5.11328C28.9889 5.47237 29.0284 5.85231 29.0625 6.17969C29.0737 6.28765 29.0856 6.38993 29.0967 6.4873C32.3814 6.57561 36.8334 6.48612 40.0869 6.48633C41.6667 6.48644 42.8009 7.08512 43.3936 8.22559C43.9421 9.28124 43.9395 10.649 43.6953 12.0264C43.3254 14.1132 42.8533 16.3703 42.4707 18.4033C42.0392 20.697 41.881 22.6803 40.623 24.6465C40.3179 25.1233 39.9285 25.4887 39.5508 25.7939C39.362 25.9465 39.1684 26.09 38.9863 26.2236C38.8003 26.3601 38.6282 26.4851 38.4609 26.6152C38.1204 26.8801 37.7174 27.2402 37.249 27.4863C36.7971 27.7238 36.2855 27.8657 35.6162 27.8975L35.3193 27.9043L10.4297 27.8945L10.4307 27.8955L8.64453 27.8945C7.03894 27.894 5.78381 27.3916 4.82422 26.541C3.88149 25.7053 3.27312 24.5787 2.85938 23.4033C2.77032 23.1503 2.68901 22.7342 2.61133 22.2617C2.53006 21.7674 2.44306 21.146 2.35352 20.4414C2.1743 19.0311 1.98177 17.2647 1.79688 15.4697C1.42141 11.8247 1.09272 8.20583 0.956055 6.89355C0.921452 6.56134 0.874209 6.2552 0.828125 5.88965C0.784545 5.54391 0.746009 5.17055 0.75 4.7998C0.758209 4.04255 0.945618 3.22571 1.66016 2.56934C2.02614 2.23313 2.52834 1.79288 3.08105 1.43457C3.61523 1.08831 4.2979 0.750083 5.01172 0.75H11.3682ZM38.3477 9.20605C37.7149 9.22185 36.9689 9.24413 36.1143 9.24414L19.3145 9.24219H19.3135C18.9925 9.24177 18.7694 9.23859 18.5762 9.24609C18.3869 9.25346 18.2909 9.27021 18.2354 9.28809C18.2018 9.29889 18.1144 9.30857 17.9238 9.67969C17.928 9.67147 17.9129 9.70392 17.8779 9.81152C17.8467 9.90763 17.8084 10.0358 17.7646 10.1953C17.6773 10.5137 17.572 10.935 17.4541 11.4307C17.2186 12.4206 16.9382 13.6864 16.6592 14.9805C16.0917 17.6129 15.5632 20.2047 15.3857 21.0312C15.1044 22.3411 14.7021 23.1711 14.3125 23.7842C14.2887 23.8217 14.262 23.8566 14.2383 23.8926C17.5212 23.8927 20.8041 23.8939 24.0869 23.8945C27.831 23.8952 31.5754 23.8955 35.3193 23.8955C35.9443 23.8955 36.4088 23.9031 36.8008 23.8867C37.1883 23.8705 37.4361 23.8319 37.6211 23.7686C37.9201 23.666 38.1937 23.4549 38.6455 22.6016H38.6465C38.9142 22.0958 39.1003 21.4507 39.2588 20.6953C39.3373 20.3214 39.4061 19.9332 39.4766 19.5322C39.5463 19.1352 39.6182 18.7237 39.6982 18.3203C40.266 15.4607 40.6933 13.4458 40.918 11.999C41.0299 11.2779 41.0855 10.7314 41.0869 10.3145C41.0883 9.89118 41.0328 9.66529 40.9746 9.54492C40.9134 9.41836 40.7865 9.24888 39.9131 9.20312C39.4982 9.1814 38.9892 9.19004 38.3477 9.20605ZM7.48145 3.52832C6.59254 3.53352 5.79024 3.5419 5.26465 3.55273C5.26408 3.5818 5.26296 3.61206 5.2627 3.64355C5.25955 4.01912 5.27925 4.51987 5.31641 5.11523C5.39055 6.30328 5.53296 7.82264 5.69727 9.38281C6.02244 12.4704 6.43708 15.7718 6.5293 16.7725C6.64473 18.0253 6.69059 19.1222 6.86914 20.1602C7.04362 21.1744 7.33185 22.0248 7.87305 22.7256C8.46631 23.4936 9.15858 23.8341 9.77734 23.8525C10.3845 23.8706 11.0609 23.5831 11.6523 22.8076C12.1464 22.1598 12.4583 21.3431 12.7002 20.3662C12.948 19.3654 13.0952 18.3307 13.3281 17.1572C13.541 16.0845 13.7445 15.0059 13.9482 13.9248C14.1518 12.8449 14.3563 11.7621 14.5713 10.6895C14.9208 8.94562 15.3466 7.76244 16.2432 7.11133C16.6969 6.78181 17.2105 6.63267 17.748 6.55957C18.2743 6.48804 18.8811 6.48339 19.541 6.4834C21.8206 6.4834 24.1428 6.54651 26.3818 6.49316C26.3781 6.3845 26.3726 6.27102 26.3613 6.16016C26.3513 6.06248 26.338 5.97649 26.3242 5.90332L14.4316 5.875V5.87402C13.8135 5.87465 13.3208 5.84148 12.9326 5.74219C12.5153 5.6354 12.174 5.44144 11.9297 5.10645C11.7214 4.82083 11.6279 4.47933 11.5615 4.25391C11.4929 4.02067 11.4231 3.78915 11.3057 3.52148C11.2743 3.52194 11.2403 3.52358 11.2041 3.52344C10.3645 3.52007 8.85205 3.52031 7.48145 3.52832Z" fill="black" stroke="white" stroke-width="1.5"/>
<path fill-rule="evenodd" clip-rule="evenodd" d="M19.5414 7.23315C22.027 7.23315 24.6403 7.31216 27.1101 7.22311C27.1697 6.76331 27.1585 5.3354 26.7644 5.15462L14.4334 5.12499C12.8535 5.12684 12.5598 4.88845 12.3626 4.31999C12.2071 3.87186 12.0887 3.32757 11.8687 2.90678C11.7935 2.763 11.7129 2.75815 11.3975 2.75336C10.1316 2.73403 6.61845 2.76245 5.14638 2.74354C4.4519 2.73461 4.30542 2.96218 4.35123 3.42255C4.80555 7.98782 5.26 12.455 5.66889 16.8925C5.89045 19.2971 5.98835 21.5125 7.27982 23.1843C8.67875 24.9952 10.8256 25.1285 12.2488 23.2627C13.4176 21.7303 13.6206 19.5377 14.0641 17.3032C14.4916 15.149 14.8782 12.9727 15.3063 10.837C16.01 7.32584 16.8649 7.23312 19.5414 7.23315Z" fill="#F8CB35"/>
<path fill-rule="evenodd" clip-rule="evenodd" d="M12.8548 24.6431C20.3431 24.6431 27.8314 24.6459 35.3197 24.6459C37.7462 24.6459 38.3506 24.7632 39.309 22.9532C39.9451 21.7518 40.1212 20.0402 40.4337 18.4663C42.6899 7.10209 42.8601 8.49466 36.1143 8.49472L19.3146 8.49274C18.1018 8.49121 17.7226 8.431 17.2572 9.33723C16.8497 10.131 14.9847 19.3266 14.6525 20.8737C14.1279 23.3167 13.1825 23.8635 12.8548 24.6431Z" fill="#F1B40B"/>
<path d="M144.459 11.2111C145.883 11.2111 146.848 11.4525 147.452 11.6698C148.393 12.0319 148.586 12.0077 149.866 11.6939C151.073 11.3801 152.376 11.2111 153.776 11.2111C158.435 11.2111 159.859 12.2008 159.425 14.8561L158.677 19.5874C158.508 20.722 158.266 20.9151 156.818 20.9151H156.407C154.887 20.9151 154.645 20.722 154.814 19.5874L155.587 14.8079C155.876 12.925 154.983 12.6112 153.342 12.6112C152.473 12.6112 151.459 12.7319 150.88 12.8526C150.493 12.925 150.276 13.094 150.204 13.5526L149.238 19.5874C149.069 20.722 148.828 20.9151 147.379 20.9151H146.969C145.448 20.9151 145.207 20.722 145.376 19.5874L146.148 14.7354C146.438 12.9009 145.521 12.6112 143.903 12.6112C143.034 12.6112 142.02 12.7319 141.441 12.8526C141.055 12.925 140.838 13.094 140.765 13.5526L139.8 19.5874C139.631 20.722 139.389 20.9151 137.941 20.9151H137.531C136.01 20.9151 135.768 20.722 135.937 19.5874L136.975 13.1664C137.12 12.2491 137.337 11.9112 139.389 11.5732C140.62 11.3801 142.648 11.2111 144.459 11.2111Z" fill="white"/>
<path d="M125.456 21.1806C118.866 21.1806 118.552 18.9598 118.986 16.2079C119.445 13.4319 120.459 11.2111 127.049 11.2111C133.615 11.2111 133.929 13.4319 133.47 16.2079C133.035 18.9598 132.022 21.1806 125.456 21.1806ZM125.673 19.853C128.618 19.853 129.052 18.5736 129.415 16.2079C129.801 13.8423 129.777 12.5388 126.832 12.5388C123.887 12.5388 123.428 13.8423 123.042 16.2079C122.68 18.5736 122.728 19.853 125.673 19.853Z" fill="white"/>
<path d="M110.747 21.1323C104.929 21.1806 103.747 19.4426 104.254 16.1596C104.76 12.9008 106.523 11.1628 112.34 11.187C115.068 11.2111 116.564 11.4766 116.902 11.5249C117.53 11.6456 117.602 11.7422 117.506 12.3939C117.385 13.0698 117.192 13.1422 116.637 13.094C116.058 13.0215 114.344 12.8043 112.895 12.8043C109.564 12.8043 108.671 13.6974 108.285 16.1596C107.899 18.646 108.478 19.5391 111.809 19.5391C113.257 19.5391 115.068 19.3219 115.671 19.2494C116.227 19.177 116.42 19.2494 116.299 19.9495C116.202 20.6012 116.106 20.6978 115.454 20.7944C115.092 20.8668 113.475 21.1323 110.747 21.1323Z" fill="white"/>
<path d="M97.5102 21.1084C93.7445 21.1084 92.4893 20.2394 92.8755 17.8255L94.179 9.64232C94.348 8.50778 94.6135 8.29053 96.086 8.29053H96.4723C97.993 8.29053 98.2103 8.50778 98.0413 9.64232L97.8482 10.801C97.7758 11.2596 97.8965 11.4286 98.4034 11.4286H102.193C102.773 11.4286 102.821 11.6217 102.724 12.1528C102.628 12.7321 102.555 12.8528 101.976 12.8528H98.1861C97.6792 12.8528 97.5102 13.046 97.4137 13.5046L96.7378 17.8738C96.4964 19.4428 97.4378 19.5153 98.7655 19.5153C99.8759 19.5153 100.938 19.3946 101.638 19.3221C102.193 19.2739 102.338 19.3463 102.242 20.0222C102.145 20.6739 102.048 20.7464 101.421 20.8671C100.89 20.9395 99.5379 21.1084 97.5102 21.1084Z" fill="white"/>
<path d="M83.7997 20.9151H83.3893C81.8686 20.9151 81.6272 20.722 81.7962 19.5875L82.7617 13.5044C82.8583 13.0216 82.7376 12.8526 82.2307 12.8526H80.5892C80.0099 12.8526 79.9374 12.7319 80.034 12.1526C80.1305 11.6215 80.2271 11.4284 80.8064 11.4284H82.4479C82.9548 11.4284 83.1238 11.2595 83.1962 10.8008L83.3169 10.1008C83.6307 8.12136 85.0549 7.27649 88.8207 7.27649C90.8484 7.27649 92.2484 7.49374 92.7071 7.56616C93.3347 7.66272 93.4071 7.73513 93.2864 8.36275C93.1899 9.06279 92.9967 9.11107 92.4657 9.06279C91.7656 8.99037 90.7518 8.86968 89.569 8.86968C88.1448 8.86968 87.3482 9.06279 87.1309 10.3422L87.0585 10.8008C86.9861 11.2595 87.1068 11.4284 87.6137 11.4284H91.2829C91.8863 11.4284 91.9346 11.6215 91.8381 12.1526C91.7415 12.7319 91.6691 12.8526 91.0656 12.8526H87.3964C86.8895 12.8526 86.7205 13.0458 86.624 13.5044L85.6584 19.5875C85.4894 20.722 85.2481 20.9151 83.7997 20.9151Z" fill="white"/>
<path d="M70.0108 21.1806C63.4208 21.1806 63.107 18.9598 63.5415 16.2079C64.0001 13.4319 65.014 11.2111 71.604 11.2111C78.1698 11.2111 78.4836 13.4319 78.025 16.2079C77.5905 18.9598 76.5767 21.1806 70.0108 21.1806ZM70.228 19.853C73.173 19.853 73.6075 18.5736 73.9696 16.2079C74.3558 13.8423 74.3317 12.5388 71.3867 12.5388C68.4417 12.5388 67.9831 13.8423 67.5969 16.2079C67.2348 18.5736 67.2831 19.853 70.228 19.853Z" fill="white"/>
<path d="M53.7442 21.1806C50.9199 21.1806 48.8922 20.8668 48.4577 20.7944C47.8542 20.6737 47.7818 20.5771 47.8784 19.9495C47.9991 19.2495 48.2163 19.1288 48.7232 19.2012C49.3509 19.2978 51.5717 19.6598 54.2511 19.6598C56.3995 19.6598 57.1237 19.515 57.2444 18.6701C57.3651 17.777 57.0513 17.6563 54.2511 17.4873C49.7129 17.2701 48.2646 16.9321 48.675 14.3734C49.1819 11.2353 51.6924 11.2111 55.5788 11.2111C58.1375 11.2111 59.9962 11.5008 60.4307 11.5732C61.0342 11.6698 61.1066 11.7422 61.0101 12.3698C60.9135 13.0457 60.6963 13.1905 60.1652 13.1181C59.7066 13.0698 57.7996 12.7802 55.5305 12.7802C53.2614 12.7802 52.5614 12.8284 52.4165 13.6733C52.2958 14.4699 52.5131 14.6389 55.1443 14.7354C59.8031 14.9527 61.348 15.1217 60.8894 17.9701C60.4066 21.0116 57.2685 21.1806 53.7442 21.1806Z" fill="white"/>
</svg>
